<svg xmlns="http://www.w3.org/2000/svg" width="320" height="360" viewBox="0 0 320 360" role="img" aria-label="原创角色星澄">
<defs><linearGradient id="hair" x2=".8" y2="1"><stop stop-color="#d9c5ff"/><stop offset="1" stop-color="#9980da"/></linearGradient><linearGradient id="dress" x2="1" y2="1"><stop stop-color="#ffd0e6"/><stop offset="1" stop-color="#a5d8ff"/></linearGradient></defs>
<style>.eyes{transform-origin:160px 151px;animation:blink 5.7s infinite}.ribbon{transform-origin:232px 76px;animation:sway 4s ease-in-out infinite}@keyframes blink{0%,42%,46%,100%{transform:scaleY(1)}44%{transform:scaleY(.08)}}@keyframes sway{50%{transform:rotate(5deg)}}@media(prefers-reduced-motion:reduce){*{animation:none!important}}</style>
<ellipse cx="160" cy="343" rx="110" ry="9" fill="#b79bff" opacity=".15"/>
<path d="M77 168Q48 77 118 42Q203 5 246 82Q284 182 252 309L210 320H92Q56 230 77 168" fill="url(#hair)" stroke="#8066b2" stroke-width="3"/>
<path d="M94 275Q104 222 138 218L183 218Q222 222 235 278L247 339H74Z" fill="url(#dress)" stroke="#9980b4" stroke-width="3"/>
<path d="M126 220L160 251L195 220L181 263L139 263Z" fill="#fff4fa"/><path d="M143 253L128 266L153 277L160 260L166 277L192 266L177 253Z" fill="#c098e9"/>
<path d="M133 205L135 225Q160 242 185 225L186 205" fill="#ffe4d6"/>
<ellipse cx="160" cy="147" rx="73" ry="79" fill="#fff0e4" stroke="#c794a4" stroke-width="2"/>
<path d="M85 132Q84 55 157 57Q226 48 239 131Q211 126 188 94L192 131Q160 118 146 85Q139 116 112 130L116 101Z" fill="url(#hair)" stroke="#8066b2" stroke-width="2"/>
<g class="eyes"><ellipse cx="131" cy="154" rx="14" ry="20" fill="#57427b"/><ellipse cx="191" cy="154" rx="14" ry="20" fill="#57427b"/><ellipse cx="131" cy="160" rx="9" ry="11" fill="#b69cff"/><ellipse cx="191" cy="160" rx="9" ry="11" fill="#b69cff"/><circle cx="126" cy="145" r="5" fill="white"/><circle cx="186" cy="145" r="5" fill="white"/><circle cx="136" cy="161" r="2.5" fill="white"/><circle cx="196" cy="161" r="2.5" fill="white"/></g>
<path d="M112 132Q130 124 142 132M178 132Q194 124 207 132" fill="none" stroke="#7f5f9e" stroke-width="3" stroke-linecap="round"/>
<ellipse cx="110" cy="179" rx="13" ry="7" fill="#ff9cbc" opacity=".55"/><ellipse cx="212" cy="179" rx="13" ry="7" fill="#ff9cbc" opacity=".55"/>
<path d="M148 187Q160 202 173 187" fill="none" stroke="#a16b84" stroke-width="3" stroke-linecap="round"/>
<g class="ribbon"><path d="M228 80L204 57L204 91L226 88L249 58L255 95Z" fill="#9edcff" stroke="#709fc9" stroke-width="2"/><circle cx="227" cy="83" r="7" fill="#fff4fa"/><path d="M226 98L238 111L221 108Z" fill="#ffd2e9"/></g>
<path d="M93 279Q73 288 73 306Q87 321 111 305M226 280Q247 271 252 243" fill="none" stroke="#ffe4d6" stroke-width="22" stroke-linecap="round"/>
<path d="M251 246L258 225M249 245L246 225" stroke="#ffe4d6" stroke-width="9" stroke-linecap="round"/>
<path d="M121 301H198M115 321H205" stroke="white" stroke-width="3" opacity=".65"/><circle cx="160" cy="296" r="7" fill="#fff4fa"/><path d="m160 286 3 7 7 3-7 3-3 7-3-7-7-3 7-3Z" fill="#b79bff"/>
</svg>